<svg id="visual" viewBox="0 0 960 540" width="960" height="540" xmlns="http://www.w3.org/2000/svg" xmlns:xlink="http://www.w3.org/1999/xlink" version="1.1"><g stroke-width="1" stroke-linejoin="bevel"><path d="M462.7 297L533.3 215L416.7 218Z" fill="#0c2435" stroke="#0c2435"></path><path d="M462.7 297L559.3 283L533.3 215Z" fill="#19435d" stroke="#19435d"></path><path d="M414.7 392L502.3 385L462.7 297Z" fill="#081a28" stroke="#081a28"></path><path d="M462.7 297L502.3 385L559.3 283Z" fill="#297ea6" stroke="#297ea6"></path><path d="M416.7 218L327 278L462.7 297Z" fill="#277297" stroke="#277297"></path><path d="M533.3 215L388.7 107L416.7 218Z" fill="#15384f" stroke="#15384f"></path><path d="M416.7 218L313 192L327 278Z" fill="#277297" stroke="#277297"></path><path d="M643 358L636 251L559.3 283Z" fill="#297ea6" stroke="#297ea6"></path><path d="M559.3 283L636 251L533.3 215Z" fill="#297ea6" stroke="#297ea6"></path><path d="M533.3 215L562.3 60L388.7 107Z" fill="#297ea6" stroke="#297ea6"></path><path d="M340 349L414.7 392L462.7 297Z" fill="#19435d" stroke="#19435d"></path><path d="M388.7 107L313 192L416.7 218Z" fill="#205a7a" stroke="#205a7a"></path><path d="M327 278L340 349L462.7 297Z" fill="#15384f" stroke="#15384f"></path><path d="M667 190L562.3 60L533.3 215Z" fill="#00101c" stroke="#00101c"></path><path d="M636 251L667 190L533.3 215Z" fill="#19435d" stroke="#19435d"></path><path d="M414.7 392L463.7 439L502.3 385Z" fill="#1d4e6b" stroke="#1d4e6b"></path><path d="M502.3 385L643 358L559.3 283Z" fill="#00101c" stroke="#00101c"></path><path d="M416.7 540L463.7 439L414.7 392Z" fill="#205a7a" stroke="#205a7a"></path><path d="M631 442L643 358L502.3 385Z" fill="#15384f" stroke="#15384f"></path><path d="M636 251L721.7 254L667 190Z" fill="#19435d" stroke="#19435d"></path><path d="M562.3 60L454.7 0L388.7 107Z" fill="#246688" stroke="#246688"></path><path d="M227.3 113L229.3 193L313 192Z" fill="#112e42" stroke="#112e42"></path><path d="M562.3 60L501.3 0L454.7 0Z" fill="#1d4e6b" stroke="#1d4e6b"></path><path d="M667 190L662 88L562.3 60Z" fill="#112e42" stroke="#112e42"></path><path d="M562.3 60L620 0L501.3 0Z" fill="#277297" stroke="#277297"></path><path d="M643 358L721.7 254L636 251Z" fill="#112e42" stroke="#112e42"></path><path d="M667 190L745.7 182L662 88Z" fill="#0c2435" stroke="#0c2435"></path><path d="M286 60L313 192L388.7 107Z" fill="#112e42" stroke="#112e42"></path><path d="M313 192L222.3 280L327 278Z" fill="#19435d" stroke="#19435d"></path><path d="M327 278L235.3 327L340 349Z" fill="#15384f" stroke="#15384f"></path><path d="M222.3 280L235.3 327L327 278Z" fill="#15384f" stroke="#15384f"></path><path d="M340 349L310 469L414.7 392Z" fill="#00101c" stroke="#00101c"></path><path d="M229.3 193L222.3 280L313 192Z" fill="#112e42" stroke="#112e42"></path><path d="M553.3 485L631 442L502.3 385Z" fill="#1d4e6b" stroke="#1d4e6b"></path><path d="M643 358L720.7 369L721.7 254Z" fill="#205a7a" stroke="#205a7a"></path><path d="M352 0L286 60L388.7 107Z" fill="#246688" stroke="#246688"></path><path d="M499.3 540L553.3 485L463.7 439Z" fill="#112e42" stroke="#112e42"></path><path d="M463.7 439L553.3 485L502.3 385Z" fill="#277297" stroke="#277297"></path><path d="M454.7 0L352 0L388.7 107Z" fill="#112e42" stroke="#112e42"></path><path d="M721.7 254L745.7 182L667 190Z" fill="#19435d" stroke="#19435d"></path><path d="M707.7 0L620 0L662 88Z" fill="#081a28" stroke="#081a28"></path><path d="M662 88L620 0L562.3 60Z" fill="#297ea6" stroke="#297ea6"></path><path d="M286 60L227.3 113L313 192Z" fill="#1d4e6b" stroke="#1d4e6b"></path><path d="M229.3 193L122.7 218L222.3 280Z" fill="#0c2435" stroke="#0c2435"></path><path d="M218.3 0L227.3 113L286 60Z" fill="#205a7a" stroke="#205a7a"></path><path d="M631 442L720.7 369L643 358Z" fill="#081a28" stroke="#081a28"></path><path d="M721.7 254L852.3 289L745.7 182Z" fill="#297ea6" stroke="#297ea6"></path><path d="M235.3 327L310 469L340 349Z" fill="#277297" stroke="#277297"></path><path d="M416.7 540L499.3 540L463.7 439Z" fill="#19435d" stroke="#19435d"></path><path d="M659 540L723.7 458L631 442Z" fill="#112e42" stroke="#112e42"></path><path d="M310 469L416.7 540L414.7 392Z" fill="#00101c" stroke="#00101c"></path><path d="M764.7 72L707.7 0L662 88Z" fill="#0c2435" stroke="#0c2435"></path><path d="M659 540L631 442L553.3 485Z" fill="#00101c" stroke="#00101c"></path><path d="M631 442L723.7 458L720.7 369Z" fill="#00101c" stroke="#00101c"></path><path d="M720.7 369L831.3 363L721.7 254Z" fill="#277297" stroke="#277297"></path><path d="M745.7 182L764.7 72L662 88Z" fill="#205a7a" stroke="#205a7a"></path><path d="M859.3 70L764.7 72L745.7 182Z" fill="#277297" stroke="#277297"></path><path d="M352 0L218.3 0L286 60Z" fill="#00101c" stroke="#00101c"></path><path d="M227.3 113L122.7 218L229.3 193Z" fill="#297ea6" stroke="#297ea6"></path><path d="M120.7 89L122.7 218L227.3 113Z" fill="#246688" stroke="#246688"></path><path d="M222.3 280L130.7 342L235.3 327Z" fill="#081a28" stroke="#081a28"></path><path d="M204.3 484L291 540L310 469Z" fill="#081a28" stroke="#081a28"></path><path d="M499.3 540L659 540L553.3 485Z" fill="#246688" stroke="#246688"></path><path d="M204.3 484L310 469L235.3 327Z" fill="#112e42" stroke="#112e42"></path><path d="M310 469L291 540L416.7 540Z" fill="#297ea6" stroke="#297ea6"></path><path d="M122.7 218L130.7 342L222.3 280Z" fill="#15384f" stroke="#15384f"></path><path d="M122.7 443L204.3 484L235.3 327Z" fill="#1d4e6b" stroke="#1d4e6b"></path><path d="M839.3 471L831.3 363L723.7 458Z" fill="#19435d" stroke="#19435d"></path><path d="M723.7 458L831.3 363L720.7 369Z" fill="#15384f" stroke="#15384f"></path><path d="M831.3 363L852.3 289L721.7 254Z" fill="#277297" stroke="#277297"></path><path d="M218.3 0L120.7 89L227.3 113Z" fill="#246688" stroke="#246688"></path><path d="M122.7 218L81.7 243L130.7 342Z" fill="#19435d" stroke="#19435d"></path><path d="M0 155L81.7 243L122.7 218Z" fill="#081a28" stroke="#081a28"></path><path d="M218.3 0L142.7 0L120.7 89Z" fill="#112e42" stroke="#112e42"></path><path d="M0 155L0 282L81.7 243Z" fill="#297ea6" stroke="#297ea6"></path><path d="M0 362L122.7 443L130.7 342Z" fill="#081a28" stroke="#081a28"></path><path d="M130.7 342L122.7 443L235.3 327Z" fill="#00101c" stroke="#00101c"></path><path d="M204.3 484L191.3 540L291 540Z" fill="#15384f" stroke="#15384f"></path><path d="M122.7 443L191.3 540L204.3 484Z" fill="#205a7a" stroke="#205a7a"></path><path d="M891.3 187L859.3 70L745.7 182Z" fill="#1d4e6b" stroke="#1d4e6b"></path><path d="M764.7 72L832.3 0L707.7 0Z" fill="#19435d" stroke="#19435d"></path><path d="M960 264L891.3 187L852.3 289Z" fill="#15384f" stroke="#15384f"></path><path d="M852.3 289L891.3 187L745.7 182Z" fill="#1d4e6b" stroke="#1d4e6b"></path><path d="M659 540L773.7 540L723.7 458Z" fill="#297ea6" stroke="#297ea6"></path><path d="M960 372L960 264L852.3 289Z" fill="#00101c" stroke="#00101c"></path><path d="M859.3 70L832.3 0L764.7 72Z" fill="#00101c" stroke="#00101c"></path><path d="M773.7 540L839.3 471L723.7 458Z" fill="#081a28" stroke="#081a28"></path><path d="M81.7 243L0 282L130.7 342Z" fill="#081a28" stroke="#081a28"></path><path d="M122.7 443L74.7 540L191.3 540Z" fill="#297ea6" stroke="#297ea6"></path><path d="M0 155L122.7 218L120.7 89Z" fill="#1d4e6b" stroke="#1d4e6b"></path><path d="M0 57L0 155L120.7 89Z" fill="#246688" stroke="#246688"></path><path d="M960 372L852.3 289L831.3 363Z" fill="#277297" stroke="#277297"></path><path d="M891.3 187L960 75L859.3 70Z" fill="#246688" stroke="#246688"></path><path d="M859.3 70L960 0L832.3 0Z" fill="#112e42" stroke="#112e42"></path><path d="M960 264L960 182L891.3 187Z" fill="#1d4e6b" stroke="#1d4e6b"></path><path d="M0 282L0 362L130.7 342Z" fill="#112e42" stroke="#112e42"></path><path d="M773.7 540L863.3 540L839.3 471Z" fill="#15384f" stroke="#15384f"></path><path d="M839.3 471L960 372L831.3 363Z" fill="#00101c" stroke="#00101c"></path><path d="M0 447L74.7 540L122.7 443Z" fill="#15384f" stroke="#15384f"></path><path d="M960 465L960 372L839.3 471Z" fill="#205a7a" stroke="#205a7a"></path><path d="M142.7 0L0 57L120.7 89Z" fill="#19435d" stroke="#19435d"></path><path d="M960 182L960 75L891.3 187Z" fill="#297ea6" stroke="#297ea6"></path><path d="M0 362L0 447L122.7 443Z" fill="#19435d" stroke="#19435d"></path><path d="M142.7 0L0 0L0 57Z" fill="#205a7a" stroke="#205a7a"></path><path d="M863.3 540L960 465L839.3 471Z" fill="#19435d" stroke="#19435d"></path><path d="M960 75L960 0L859.3 70Z" fill="#19435d" stroke="#19435d"></path><path d="M0 447L0 540L74.7 540Z" fill="#081a28" stroke="#081a28"></path><path d="M863.3 540L960 540L960 465Z" fill="#081a28" stroke="#081a28"></path></g></svg>